<svg width="195" height="48" viewBox="0 0 195 48" fill="none" xmlns="http://www.w3.org/2000/svg">
<path d="M47.1422 5.85781C43.3647 2.08031 38.3422 0 33 0C27.6578 0 22.6353 2.08031 18.8578 5.85781C15.0803 9.63531 13 14.6578 13 20C13 25.3422 15.0804 30.3646 18.8578 34.1422C22.6352 37.9198 27.6578 40 33 40C38.3422 40 43.3647 37.9197 47.1422 34.1422C50.9197 30.3647 53 25.3422 53 20C53 14.6578 50.9196 9.63539 47.1422 5.85781Z" fill="#33CC95"/>
<g clip-path="url(#clip0)">
<path d="M33.5714 8V33.1429" stroke="white" stroke-width="2" stroke-linecap="round" stroke-linejoin="round"/>
<path d="M39.2857 12.5714H30.7143C29.6534 12.5714 28.636 12.9929 27.8859 13.743C27.1357 14.4931 26.7143 15.5106 26.7143 16.5714C26.7143 17.6323 27.1357 18.6497 27.8859 19.3999C28.636 20.15 29.6534 20.5714 30.7143 20.5714H36.4286C37.4894 20.5714 38.5069 20.9929 39.257 21.743C40.0072 22.4932 40.4286 23.5106 40.4286 24.5714C40.4286 25.6323 40.0072 26.6497 39.257 27.3999C38.5069 28.15 37.4894 28.5714 36.4286 28.5714H26.7143" stroke="white" stroke-width="2" stroke-linecap="round" stroke-linejoin="round"/>
</g>
<path d="M0 20.1895C23.2278 15.2682 37.9912 26.0574 37.9912 44.4179C38.0806 45.7323 37.5163 46.9908 35.0385 47.4465C22.9255 49.6743 10.8733 45.1738 6.69275 34.0073C4.92114 29.2753 3.6709 25.5696 0 20.1895Z" fill="white"/>
<path d="M36 43.3359C33.9482 38.9447 22.6632 34.1876 22.6632 34.1876C22.6632 34.1876 31.0089 40.7713 33.4352 45.9972C19.311 46.0877 12.4448 44.0001 8.81347 34.1876C7.27461 30.0294 6.18862 26.773 3 22.0453C23.1762 17.7207 36 27.2017 36 43.3359Z" fill="#2EB484"/>
<path d="M68.9965 15.46V31H65.4055V15.46H68.9965Z" fill="white"/>
<path d="M82.6449 24.952C82.6449 25.288 82.6239 25.638 82.5819 26.002H74.4549C74.5109 26.73 74.7419 27.29 75.1479 27.682C75.5679 28.06 76.0789 28.249 76.6809 28.249C77.5769 28.249 78.1999 27.871 78.5499 27.115H82.3719C82.1759 27.885 81.8189 28.578 81.3009 29.194C80.7969 29.81 80.1599 30.293 79.3899 30.643C78.6199 30.993 77.7589 31.168 76.8069 31.168C75.6589 31.168 74.6369 30.923 73.7409 30.433C72.8449 29.943 72.1449 29.243 71.6409 28.333C71.1369 27.423 70.8849 26.359 70.8849 25.141C70.8849 23.923 71.1299 22.859 71.6199 21.949C72.1239 21.039 72.8239 20.339 73.7199 19.849C74.6159 19.359 75.6449 19.114 76.8069 19.114C77.9409 19.114 78.9489 19.352 79.8309 19.828C80.7129 20.304 81.3989 20.983 81.8889 21.865C82.3929 22.747 82.6449 23.776 82.6449 24.952ZM78.9699 24.007C78.9699 23.391 78.7599 22.901 78.3399 22.537C77.9199 22.173 77.3949 21.991 76.7649 21.991C76.1629 21.991 75.6519 22.166 75.2319 22.516C74.8259 22.866 74.5739 23.363 74.4759 24.007H78.9699Z" fill="white"/>
<path d="M83.8253 25.12C83.8253 23.916 84.0493 22.859 84.4973 21.949C84.9593 21.039 85.5823 20.339 86.3663 19.849C87.1503 19.359 88.0253 19.114 88.9913 19.114C89.8173 19.114 90.5383 19.282 91.1543 19.618C91.7843 19.954 92.2673 20.395 92.6033 20.941V19.282H96.1943V31H92.6033V29.341C92.2533 29.887 91.7633 30.328 91.1333 30.664C90.5173 31 89.7963 31.168 88.9703 31.168C88.0183 31.168 87.1503 30.923 86.3663 30.433C85.5823 29.929 84.9593 29.222 84.4973 28.312C84.0493 27.388 83.8253 26.324 83.8253 25.12ZM92.6033 25.141C92.6033 24.245 92.3513 23.538 91.8473 23.02C91.3573 22.502 90.7553 22.243 90.0413 22.243C89.3273 22.243 88.7183 22.502 88.2143 23.02C87.7243 23.524 87.4793 24.224 87.4793 25.12C87.4793 26.016 87.7243 26.73 88.2143 27.262C88.7183 27.78 89.3273 28.039 90.0413 28.039C90.7553 28.039 91.3573 27.78 91.8473 27.262C92.3513 26.744 92.6033 26.037 92.6033 25.141Z" fill="white"/>
<path d="M104.672 22.264H102.74V31H99.1492V22.264H97.8472V19.282H99.1492V18.946C99.1492 17.504 99.5622 16.412 100.388 15.67C101.214 14.914 102.425 14.536 104.021 14.536C104.287 14.536 104.483 14.543 104.609 14.557V17.602C103.923 17.56 103.44 17.658 103.16 17.896C102.88 18.134 102.74 18.561 102.74 19.177V19.282H104.672V22.264Z" fill="white"/>
<path d="M112.891 27.955V31H111.064C109.762 31 108.747 30.685 108.019 30.055C107.291 29.411 106.927 28.368 106.927 26.926V22.264H105.499V19.282H106.927V16.426H110.518V19.282H112.87V22.264H110.518V26.968C110.518 27.318 110.602 27.57 110.77 27.724C110.938 27.878 111.218 27.955 111.61 27.955H112.891Z" fill="white"/>
<path d="M134.293 19.156C135.749 19.156 136.904 19.597 137.758 20.479C138.626 21.361 139.06 22.586 139.06 24.154V31H135.49V24.637C135.49 23.881 135.287 23.3 134.881 22.894C134.489 22.474 133.943 22.264 133.243 22.264C132.543 22.264 131.99 22.474 131.584 22.894C131.192 23.3 130.996 23.881 130.996 24.637V31H127.426V24.637C127.426 23.881 127.223 23.3 126.817 22.894C126.425 22.474 125.879 22.264 125.179 22.264C124.479 22.264 123.926 22.474 123.52 22.894C123.128 23.3 122.932 23.881 122.932 24.637V31H119.341V19.282H122.932V20.752C123.296 20.262 123.772 19.877 124.36 19.597C124.948 19.303 125.613 19.156 126.355 19.156C127.237 19.156 128.021 19.345 128.707 19.723C129.407 20.101 129.953 20.64 130.345 21.34C130.751 20.696 131.304 20.171 132.004 19.765C132.704 19.359 133.467 19.156 134.293 19.156Z" fill="white"/>
<path d="M146.906 31.168C145.758 31.168 144.722 30.923 143.798 30.433C142.888 29.943 142.167 29.243 141.635 28.333C141.117 27.423 140.858 26.359 140.858 25.141C140.858 23.937 141.124 22.88 141.656 21.97C142.188 21.046 142.916 20.339 143.84 19.849C144.764 19.359 145.8 19.114 146.948 19.114C148.096 19.114 149.132 19.359 150.056 19.849C150.98 20.339 151.708 21.046 152.24 21.97C152.772 22.88 153.038 23.937 153.038 25.141C153.038 26.345 152.765 27.409 152.219 28.333C151.687 29.243 150.952 29.943 150.014 30.433C149.09 30.923 148.054 31.168 146.906 31.168ZM146.906 28.06C147.592 28.06 148.173 27.808 148.649 27.304C149.139 26.8 149.384 26.079 149.384 25.141C149.384 24.203 149.146 23.482 148.67 22.978C148.208 22.474 147.634 22.222 146.948 22.222C146.248 22.222 145.667 22.474 145.205 22.978C144.743 23.468 144.512 24.189 144.512 25.141C144.512 26.079 144.736 26.8 145.184 27.304C145.646 27.808 146.22 28.06 146.906 28.06Z" fill="white"/>
<path d="M162.083 19.156C163.455 19.156 164.547 19.604 165.359 20.5C166.185 21.382 166.598 22.6 166.598 24.154V31H163.028V24.637C163.028 23.853 162.825 23.244 162.419 22.81C162.013 22.376 161.467 22.159 160.781 22.159C160.095 22.159 159.549 22.376 159.143 22.81C158.737 23.244 158.534 23.853 158.534 24.637V31H154.943V19.282H158.534V20.836C158.898 20.318 159.388 19.912 160.004 19.618C160.62 19.31 161.313 19.156 162.083 19.156Z" fill="white"/>
<path d="M180.139 24.952C180.139 25.288 180.118 25.638 180.076 26.002H171.949C172.005 26.73 172.236 27.29 172.642 27.682C173.062 28.06 173.573 28.249 174.175 28.249C175.071 28.249 175.694 27.871 176.044 27.115H179.866C179.67 27.885 179.313 28.578 178.795 29.194C178.291 29.81 177.654 30.293 176.884 30.643C176.114 30.993 175.253 31.168 174.301 31.168C173.153 31.168 172.131 30.923 171.235 30.433C170.339 29.943 169.639 29.243 169.135 28.333C168.631 27.423 168.379 26.359 168.379 25.141C168.379 23.923 168.624 22.859 169.114 21.949C169.618 21.039 170.318 20.339 171.214 19.849C172.11 19.359 173.139 19.114 174.301 19.114C175.435 19.114 176.443 19.352 177.325 19.828C178.207 20.304 178.893 20.983 179.383 21.865C179.887 22.747 180.139 23.776 180.139 24.952ZM176.464 24.007C176.464 23.391 176.254 22.901 175.834 22.537C175.414 22.173 174.889 21.991 174.259 21.991C173.657 21.991 173.146 22.166 172.726 22.516C172.32 22.866 172.068 23.363 171.97 24.007H176.464Z" fill="white"/>
<path d="M194.003 19.282L186.653 36.565H182.789L185.477 30.601L180.71 19.282H184.721L187.43 26.611L190.118 19.282H194.003Z" fill="white"/>
<defs>
<clipPath id="clip0">
<rect width="27.4286" height="27.4286" fill="white" transform="translate(19.8571 6.85714)"/>
</clipPath>
</defs>
</svg>
